<svg width="79" height="24" viewBox="0 0 79 24" fill="none" xmlns="http://www.w3.org/2000/svg">
<rect width="79" height="24" fill="white"/>
<g filter="url(#filter0_d_0_1)">
<mask id="path-1-outside-1_0_1" maskUnits="userSpaceOnUse" x="18" y="2" width="58" height="15" fill="black">
<rect fill="white" x="18" y="2" width="58" height="15"/>
<path d="M26.1172 13L25.7891 12.1504H23.2461L23.7852 10.6094H25.1914L23.1113 5.22461H25.6367L28.7363 13H26.1172ZM20.0527 13L22.8301 5.57617L23.9785 8.66406L22.5547 13H20.0527ZM30.6289 13L29.0703 11.4473V8.33008H28.5547V6.77734H29.0703V6.10352L31.6602 5.22461V11.4473H33.3711V13H30.6289ZM32.0703 8.33008V6.77734H33.4648V8.33008H32.0703ZM36.3008 13L34.7422 11.4473V8.33008H34.2266V6.77734H34.7422V6.10352L37.332 5.22461V11.4473H39.043V13H36.3008ZM37.7422 8.33008V6.77734H39.1367V8.33008H37.7422ZM41.3984 13L39.8457 11.4473V8.33008L41.3984 6.77734H42.4355V13H41.3984ZM42.8457 10.5039V9.41992H44.2109V8.33008H42.8457V6.77734H45.043L46.5957 8.33008V10.5039H42.8457ZM42.8457 13V11.5469H46.3262V12.2207L45.5527 13H42.8457ZM51.8047 13V8.33008H50.6914V7.65039L51.5586 6.77734H53L54.4004 8.17773V13H51.8047ZM47.6562 13V6.77734H50.2695V13H47.6562ZM59.7969 13V4.4043H62.3867V13H59.7969ZM56.9492 13L55.5488 11.5996V8.17773L56.9492 6.77734H59.3867V8.33008H58.1387V11.5469H59.3867V12.3848L58.7715 13H56.9492ZM65.0586 13L63.6055 11.5469V4.4043H66.1953V11.4473H67.3555V13H65.0586ZM68.6445 15.168L71.7969 6.77734H74.2871L71.1289 15.168H68.6445ZM69.2656 12.4785L66.9688 6.77734H69.5527L70.4258 9.30859L69.2656 12.4785Z"/>
</mask>
<path d="M26.1172 13L25.7891 12.1504H23.2461L23.7852 10.6094H25.1914L23.1113 5.22461H25.6367L28.7363 13H26.1172ZM20.0527 13L22.8301 5.57617L23.9785 8.66406L22.5547 13H20.0527ZM30.6289 13L29.0703 11.4473V8.33008H28.5547V6.77734H29.0703V6.10352L31.6602 5.22461V11.4473H33.3711V13H30.6289ZM32.0703 8.33008V6.77734H33.4648V8.33008H32.0703ZM36.3008 13L34.7422 11.4473V8.33008H34.2266V6.77734H34.7422V6.10352L37.332 5.22461V11.4473H39.043V13H36.3008ZM37.7422 8.33008V6.77734H39.1367V8.33008H37.7422ZM41.3984 13L39.8457 11.4473V8.33008L41.3984 6.77734H42.4355V13H41.3984ZM42.8457 10.5039V9.41992H44.2109V8.33008H42.8457V6.77734H45.043L46.5957 8.33008V10.5039H42.8457ZM42.8457 13V11.5469H46.3262V12.2207L45.5527 13H42.8457ZM51.8047 13V8.33008H50.6914V7.65039L51.5586 6.77734H53L54.4004 8.17773V13H51.8047ZM47.6562 13V6.77734H50.2695V13H47.6562ZM59.7969 13V4.4043H62.3867V13H59.7969ZM56.9492 13L55.5488 11.5996V8.17773L56.9492 6.77734H59.3867V8.33008H58.1387V11.5469H59.3867V12.3848L58.7715 13H56.9492ZM65.0586 13L63.6055 11.5469V4.4043H66.1953V11.4473H67.3555V13H65.0586ZM68.6445 15.168L71.7969 6.77734H74.2871L71.1289 15.168H68.6445ZM69.2656 12.4785L66.9688 6.77734H69.5527L70.4258 9.30859L69.2656 12.4785Z" fill="black"/>
<path d="M26.1172 13L25.1843 13.3603L25.4314 14H26.1172V13ZM25.7891 12.1504L26.7219 11.7901L26.4748 11.1504H25.7891V12.1504ZM23.2461 12.1504L22.3022 11.8202L21.8369 13.1504H23.2461V12.1504ZM23.7852 10.6094V9.60938H23.0755L22.8412 10.2792L23.7852 10.6094ZM25.1914 10.6094V11.6094H26.6497L26.1242 10.249L25.1914 10.6094ZM23.1113 5.22461V4.22461H21.653L22.1785 5.58495L23.1113 5.22461ZM25.6367 5.22461L26.5656 4.85431L26.3146 4.22461H25.6367V5.22461ZM28.7363 13V14H30.2115L29.6652 12.6297L28.7363 13ZM20.0527 13L19.1161 12.6496L18.6109 14H20.0527V13ZM22.8301 5.57617L23.7674 5.22758L22.8328 2.71487L21.8935 5.22578L22.8301 5.57617ZM23.9785 8.66406L24.9286 8.97605L25.0378 8.64352L24.9158 8.31547L23.9785 8.66406ZM22.5547 13V14H23.2788L23.5048 13.312L22.5547 13ZM27.05 12.6397L26.7219 11.7901L24.8562 12.5107L25.1843 13.3603L27.05 12.6397ZM25.7891 11.1504H23.2461V13.1504H25.7891V11.1504ZM24.19 12.4806L24.7291 10.9396L22.8412 10.2792L22.3022 11.8202L24.19 12.4806ZM23.7852 11.6094H25.1914V9.60938H23.7852V11.6094ZM26.1242 10.249L24.0441 4.86427L22.1785 5.58495L24.2586 10.9697L26.1242 10.249ZM23.1113 6.22461H25.6367V4.22461H23.1113V6.22461ZM24.7078 5.59491L27.8074 13.3703L29.6652 12.6297L26.5656 4.85431L24.7078 5.59491ZM28.7363 12H26.1172V14H28.7363V12ZM20.9893 13.3504L23.7667 5.92657L21.8935 5.22578L19.1161 12.6496L20.9893 13.3504ZM21.8928 5.92476L23.0412 9.01265L24.9158 8.31547L23.7674 5.22758L21.8928 5.92476ZM23.0284 8.35207L21.6046 12.688L23.5048 13.312L24.9286 8.97605L23.0284 8.35207ZM22.5547 12H20.0527V14H22.5547V12ZM30.6289 13L29.9231 13.7084L30.2158 14H30.6289V13ZM29.0703 11.4473H28.0703V11.8626L28.3645 12.1557L29.0703 11.4473ZM29.0703 8.33008H30.0703V7.33008H29.0703V8.33008ZM28.5547 8.33008H27.5547V9.33008H28.5547V8.33008ZM28.5547 6.77734V5.77734H27.5547V6.77734H28.5547ZM29.0703 6.77734V7.77734H30.0703V6.77734H29.0703ZM29.0703 6.10352L28.7489 5.15656L28.0703 5.38687V6.10352H29.0703ZM31.6602 5.22461H32.6602V3.82923L31.3388 4.27765L31.6602 5.22461ZM31.6602 11.4473H30.6602V12.4473H31.6602V11.4473ZM33.3711 11.4473H34.3711V10.4473H33.3711V11.4473ZM33.3711 13V14H34.3711V13H33.3711ZM32.0703 8.33008H31.0703V9.33008H32.0703V8.33008ZM32.0703 6.77734V5.77734H31.0703V6.77734H32.0703ZM33.4648 6.77734H34.4648V5.77734H33.4648V6.77734ZM33.4648 8.33008V9.33008H34.4648V8.33008H33.4648ZM31.3347 12.2916L29.7761 10.7388L28.3645 12.1557L29.9231 13.7084L31.3347 12.2916ZM30.0703 11.4473V8.33008H28.0703V11.4473H30.0703ZM29.0703 7.33008H28.5547V9.33008H29.0703V7.33008ZM29.5547 8.33008V6.77734H27.5547V8.33008H29.5547ZM28.5547 7.77734H29.0703V5.77734H28.5547V7.77734ZM30.0703 6.77734V6.10352H28.0703V6.77734H30.0703ZM29.3917 7.05047L31.9815 6.17156L31.3388 4.27765L28.7489 5.15656L29.3917 7.05047ZM30.6602 5.22461V11.4473H32.6602V5.22461H30.6602ZM31.6602 12.4473H33.3711V10.4473H31.6602V12.4473ZM32.3711 11.4473V13H34.3711V11.4473H32.3711ZM33.3711 12H30.6289V14H33.3711V12ZM33.0703 8.33008V6.77734H31.0703V8.33008H33.0703ZM32.0703 7.77734H33.4648V5.77734H32.0703V7.77734ZM32.4648 6.77734V8.33008H34.4648V6.77734H32.4648ZM33.4648 7.33008H32.0703V9.33008H33.4648V7.33008ZM36.3008 13L35.595 13.7084L35.8877 14H36.3008V13ZM34.7422 11.4473H33.7422V11.8626L34.0364 12.1557L34.7422 11.4473ZM34.7422 8.33008H35.7422V7.33008H34.7422V8.33008ZM34.2266 8.33008H33.2266V9.33008H34.2266V8.33008ZM34.2266 6.77734V5.77734H33.2266V6.77734H34.2266ZM34.7422 6.77734V7.77734H35.7422V6.77734H34.7422ZM34.7422 6.10352L34.4208 5.15656L33.7422 5.38687V6.10352H34.7422ZM37.332 5.22461H38.332V3.82923L37.0107 4.27765L37.332 5.22461ZM37.332 11.4473H36.332V12.4473H37.332V11.4473ZM39.043 11.4473H40.043V10.4473H39.043V11.4473ZM39.043 13V14H40.043V13H39.043ZM37.7422 8.33008H36.7422V9.33008H37.7422V8.33008ZM37.7422 6.77734V5.77734H36.7422V6.77734H37.7422ZM39.1367 6.77734H40.1367V5.77734H39.1367V6.77734ZM39.1367 8.33008V9.33008H40.1367V8.33008H39.1367ZM37.0066 12.2916L35.448 10.7388L34.0364 12.1557L35.595 13.7084L37.0066 12.2916ZM35.7422 11.4473V8.33008H33.7422V11.4473H35.7422ZM34.7422 7.33008H34.2266V9.33008H34.7422V7.33008ZM35.2266 8.33008V6.77734H33.2266V8.33008H35.2266ZM34.2266 7.77734H34.7422V5.77734H34.2266V7.77734ZM35.7422 6.77734V6.10352H33.7422V6.77734H35.7422ZM35.0636 7.05047L37.6534 6.17156L37.0107 4.27765L34.4208 5.15656L35.0636 7.05047ZM36.332 5.22461V11.4473H38.332V5.22461H36.332ZM37.332 12.4473H39.043V10.4473H37.332V12.4473ZM38.043 11.4473V13H40.043V11.4473H38.043ZM39.043 12H36.3008V14H39.043V12ZM38.7422 8.33008V6.77734H36.7422V8.33008H38.7422ZM37.7422 7.77734H39.1367V5.77734H37.7422V7.77734ZM38.1367 6.77734V8.33008H40.1367V6.77734H38.1367ZM39.1367 7.33008H37.7422V9.33008H39.1367V7.33008ZM41.3984 13L40.6913 13.7071L40.9842 14H41.3984V13ZM39.8457 11.4473H38.8457V11.8615L39.1386 12.1544L39.8457 11.4473ZM39.8457 8.33008L39.1386 7.62297L38.8457 7.91586V8.33008H39.8457ZM41.3984 6.77734V5.77734H40.9842L40.6913 6.07024L41.3984 6.77734ZM42.4355 6.77734H43.4355V5.77734H42.4355V6.77734ZM42.4355 13V14H43.4355V13H42.4355ZM42.8457 10.5039H41.8457V11.5039H42.8457V10.5039ZM42.8457 9.41992V8.41992H41.8457V9.41992H42.8457ZM44.2109 9.41992V10.4199H45.2109V9.41992H44.2109ZM44.2109 8.33008H45.2109V7.33008H44.2109V8.33008ZM42.8457 8.33008H41.8457V9.33008H42.8457V8.33008ZM42.8457 6.77734V5.77734H41.8457V6.77734H42.8457ZM45.043 6.77734L45.7501 6.07024L45.4572 5.77734H45.043V6.77734ZM46.5957 8.33008H47.5957V7.91586L47.3028 7.62297L46.5957 8.33008ZM46.5957 10.5039V11.5039H47.5957V10.5039H46.5957ZM42.8457 13H41.8457V14H42.8457V13ZM42.8457 11.5469V10.5469H41.8457V11.5469H42.8457ZM46.3262 11.5469H47.3262V10.5469H46.3262V11.5469ZM46.3262 12.2207L47.0359 12.9251L47.3262 12.6327V12.2207H46.3262ZM45.5527 13V14H45.9692L46.2625 13.7044L45.5527 13ZM42.1055 12.2929L40.5528 10.7402L39.1386 12.1544L40.6913 13.7071L42.1055 12.2929ZM40.8457 11.4473V8.33008H38.8457V11.4473H40.8457ZM40.5528 9.03718L42.1055 7.48445L40.6913 6.07024L39.1386 7.62297L40.5528 9.03718ZM41.3984 7.77734H42.4355V5.77734H41.3984V7.77734ZM41.4355 6.77734V13H43.4355V6.77734H41.4355ZM42.4355 12H41.3984V14H42.4355V12ZM43.8457 10.5039V9.41992H41.8457V10.5039H43.8457ZM42.8457 10.4199H44.2109V8.41992H42.8457V10.4199ZM45.2109 9.41992V8.33008H43.2109V9.41992H45.2109ZM44.2109 7.33008H42.8457V9.33008H44.2109V7.33008ZM43.8457 8.33008V6.77734H41.8457V8.33008H43.8457ZM42.8457 7.77734H45.043V5.77734H42.8457V7.77734ZM44.3359 7.48445L45.8886 9.03718L47.3028 7.62297L45.7501 6.07024L44.3359 7.48445ZM45.5957 8.33008V10.5039H47.5957V8.33008H45.5957ZM46.5957 9.50391H42.8457V11.5039H46.5957V9.50391ZM43.8457 13V11.5469H41.8457V13H43.8457ZM42.8457 12.5469H46.3262V10.5469H42.8457V12.5469ZM45.3262 11.5469V12.2207H47.3262V11.5469H45.3262ZM45.6164 11.5163L44.843 12.2956L46.2625 13.7044L47.0359 12.9251L45.6164 11.5163ZM45.5527 12H42.8457V14H45.5527V12ZM51.8047 13H50.8047V14H51.8047V13ZM51.8047 8.33008H52.8047V7.33008H51.8047V8.33008ZM50.6914 8.33008H49.6914V9.33008H50.6914V8.33008ZM50.6914 7.65039L49.9819 6.94567L49.6914 7.23815V7.65039H50.6914ZM51.5586 6.77734V5.77734H51.1424L50.8491 6.07262L51.5586 6.77734ZM53 6.77734L53.7071 6.07024L53.4142 5.77734H53V6.77734ZM54.4004 8.17773H55.4004V7.76352L55.1075 7.47063L54.4004 8.17773ZM54.4004 13V14H55.4004V13H54.4004ZM47.6562 13H46.6562V14H47.6562V13ZM47.6562 6.77734V5.77734H46.6562V6.77734H47.6562ZM50.2695 6.77734H51.2695V5.77734H50.2695V6.77734ZM50.2695 13V14H51.2695V13H50.2695ZM52.8047 13V8.33008H50.8047V13H52.8047ZM51.8047 7.33008H50.6914V9.33008H51.8047V7.33008ZM51.6914 8.33008V7.65039H49.6914V8.33008H51.6914ZM51.4009 8.35511L52.2681 7.48207L50.8491 6.07262L49.9819 6.94567L51.4009 8.35511ZM51.5586 7.77734H53V5.77734H51.5586V7.77734ZM52.2929 7.48445L53.6933 8.88484L55.1075 7.47063L53.7071 6.07024L52.2929 7.48445ZM53.4004 8.17773V13H55.4004V8.17773H53.4004ZM54.4004 12H51.8047V14H54.4004V12ZM48.6562 13V6.77734H46.6562V13H48.6562ZM47.6562 7.77734H50.2695V5.77734H47.6562V7.77734ZM49.2695 6.77734V13H51.2695V6.77734H49.2695ZM50.2695 12H47.6562V14H50.2695V12ZM59.7969 13H58.7969V14H59.7969V13ZM59.7969 4.4043V3.4043H58.7969V4.4043H59.7969ZM62.3867 4.4043H63.3867V3.4043H62.3867V4.4043ZM62.3867 13V14H63.3867V13H62.3867ZM56.9492 13L56.2421 13.7071L56.535 14H56.9492V13ZM55.5488 11.5996H54.5488V12.0138L54.8417 12.3067L55.5488 11.5996ZM55.5488 8.17773L54.8417 7.47063L54.5488 7.76352V8.17773H55.5488ZM56.9492 6.77734V5.77734H56.535L56.2421 6.07024L56.9492 6.77734ZM59.3867 6.77734H60.3867V5.77734H59.3867V6.77734ZM59.3867 8.33008V9.33008H60.3867V8.33008H59.3867ZM58.1387 8.33008V7.33008H57.1387V8.33008H58.1387ZM58.1387 11.5469H57.1387V12.5469H58.1387V11.5469ZM59.3867 11.5469H60.3867V10.5469H59.3867V11.5469ZM59.3867 12.3848L60.0938 13.0919L60.3867 12.799V12.3848H59.3867ZM58.7715 13V14H59.1857L59.4786 13.7071L58.7715 13ZM60.7969 13V4.4043H58.7969V13H60.7969ZM59.7969 5.4043H62.3867V3.4043H59.7969V5.4043ZM61.3867 4.4043V13H63.3867V4.4043H61.3867ZM62.3867 12H59.7969V14H62.3867V12ZM57.6563 12.2929L56.2559 10.8925L54.8417 12.3067L56.2421 13.7071L57.6563 12.2929ZM56.5488 11.5996V8.17773H54.5488V11.5996H56.5488ZM56.2559 8.88484L57.6563 7.48445L56.2421 6.07024L54.8417 7.47063L56.2559 8.88484ZM56.9492 7.77734H59.3867V5.77734H56.9492V7.77734ZM58.3867 6.77734V8.33008H60.3867V6.77734H58.3867ZM59.3867 7.33008H58.1387V9.33008H59.3867V7.33008ZM57.1387 8.33008V11.5469H59.1387V8.33008H57.1387ZM58.1387 12.5469H59.3867V10.5469H58.1387V12.5469ZM58.3867 11.5469V12.3848H60.3867V11.5469H58.3867ZM58.6796 11.6777L58.0644 12.2929L59.4786 13.7071L60.0938 13.0919L58.6796 11.6777ZM58.7715 12H56.9492V14H58.7715V12ZM65.0586 13L64.3515 13.7071L64.6444 14H65.0586V13ZM63.6055 11.5469H62.6055V11.9611L62.8984 12.254L63.6055 11.5469ZM63.6055 4.4043V3.4043H62.6055V4.4043H63.6055ZM66.1953 4.4043H67.1953V3.4043H66.1953V4.4043ZM66.1953 11.4473H65.1953V12.4473H66.1953V11.4473ZM67.3555 11.4473H68.3555V10.4473H67.3555V11.4473ZM67.3555 13V14H68.3555V13H67.3555ZM65.7657 12.2929L64.3126 10.8398L62.8984 12.254L64.3515 13.7071L65.7657 12.2929ZM64.6055 11.5469V4.4043H62.6055V11.5469H64.6055ZM63.6055 5.4043H66.1953V3.4043H63.6055V5.4043ZM65.1953 4.4043V11.4473H67.1953V4.4043H65.1953ZM66.1953 12.4473H67.3555V10.4473H66.1953V12.4473ZM66.3555 11.4473V13H68.3555V11.4473H66.3555ZM67.3555 12H65.0586V14H67.3555V12ZM68.6445 15.168L67.7084 14.8163L67.2006 16.168H68.6445V15.168ZM71.7969 6.77734V5.77734H71.1043L70.8608 6.42565L71.7969 6.77734ZM74.2871 6.77734L75.223 7.12961L75.732 5.77734H74.2871V6.77734ZM71.1289 15.168V16.168H71.821L72.0648 15.5202L71.1289 15.168ZM69.2656 12.4785L68.3381 12.8522L69.3104 15.2657L70.2047 12.8222L69.2656 12.4785ZM66.9688 6.77734V5.77734H65.4878L66.0412 7.15103L66.9688 6.77734ZM69.5527 6.77734L70.4981 6.45129L70.2656 5.77734H69.5527V6.77734ZM70.4258 9.30859L71.3649 9.65229L71.487 9.31853L71.3711 8.98254L70.4258 9.30859ZM69.5806 15.5197L72.733 7.12904L70.8608 6.42565L67.7084 14.8163L69.5806 15.5197ZM71.7969 7.77734H74.2871V5.77734H71.7969V7.77734ZM73.3512 6.42507L70.193 14.8157L72.0648 15.5202L75.223 7.12961L73.3512 6.42507ZM71.1289 14.168H68.6445V16.168H71.1289V14.168ZM70.1932 12.1048L67.8963 6.40365L66.0412 7.15103L68.3381 12.8522L70.1932 12.1048ZM66.9688 7.77734H69.5527V5.77734H66.9688V7.77734ZM68.6074 7.1034L69.4804 9.63465L71.3711 8.98254L70.4981 6.45129L68.6074 7.1034ZM69.4867 8.9649L68.3265 12.1348L70.2047 12.8222L71.3649 9.65229L69.4867 8.9649Z" fill="white" mask="url(#path-1-outside-1_0_1)"/>
</g>
<g clip-path="url(#clip0_0_1)">
<path d="M1.33333 1.33333L11 3.66667L12 8.66666L8.66666 12L3.66666 11L1.33333 1.33333ZM1.33333 1.33333L6.39066 6.39067M7.99999 12.6667L12.6667 8L14.6667 10L9.99999 14.6667L7.99999 12.6667ZM8.66666 7.33333C8.66666 8.06971 8.06971 8.66666 7.33333 8.66666C6.59695 8.66666 5.99999 8.06971 5.99999 7.33333C5.99999 6.59695 6.59695 6 7.33333 6C8.06971 6 8.66666 6.59695 8.66666 7.33333Z" stroke="#1E1E1E" stroke-width="1.6" stroke-linecap="round" stroke-linejoin="round"/>
</g>
<defs>
<filter id="filter0_d_0_1" x="16.0527" y="4.4043" width="62.2344" height="18.7637" filterUnits="userSpaceOnUse" color-interpolation-filters="sRGB">
<feFlood flood-opacity="0" result="BackgroundImageFix"/>
<feColorMatrix in="SourceAlpha" type="matrix" values="0 0 0 0 0 0 0 0 0 0 0 0 0 0 0 0 0 0 127 0" result="hardAlpha"/>
<feOffset dy="4"/>
<feGaussianBlur stdDeviation="2"/>
<feComposite in2="hardAlpha" operator="out"/>
<feColorMatrix type="matrix" values="0 0 0 0 0 0 0 0 0 0 0 0 0 0 0 0 0 0 0.25 0"/>
<feBlend mode="normal" in2="BackgroundImageFix" result="effect1_dropShadow_0_1"/>
<feBlend mode="normal" in="SourceGraphic" in2="effect1_dropShadow_0_1" result="shape"/>
</filter>
<clipPath id="clip0_0_1">
<rect width="16" height="16" fill="white"/>
</clipPath>
</defs>
</svg>
